<svg xmlns="http://www.w3.org/2000/svg" width="500" height="500" viewBox="0 0 500 500">
  <path id="custSer" d="M372.958,250A43.029,43.029,0,0,1,416,293.042V373.6a43.042,43.042,0,0,1-43.042,43.042H333.333V249.979h39.625Zm-246.583,0a43.042,43.042,0,0,0-43.042,43.042V373.6a43.047,43.047,0,0,0,43.042,43.062h40.292V250ZM250,0C102.479,0,0,119.1,0,269.813v63.521H41.667V269.062C41.667,137.687,146.292,62.708,250,62.5c103.708.208,208.333,75.188,208.333,206.583v64.25H500V269.813C500,119.1,397.521,0,250,0ZM229.125,479.771A20.254,20.254,0,0,0,249.375,500h63.083V458.333H249.375C238.208,458.333,229.125,468.6,229.125,479.771ZM458.292,375c.042,69-49.187,93.958-124.958,93.958v21.271c82.479,0,145.833-33.208,145.792-115.229Z" fill="#ffb703"/>
</svg>
