<svg xmlns="http://www.w3.org/2000/svg" width="500" height="370.339" viewBox="0 0 500 370.339">
  <g id="delivery" transform="translate(984 -3681.661)">
    <path id="iconmonstr-delivery-1" d="M62.5,315.5H20.833A20.841,20.841,0,0,1,0,294.667V253H312.5V65.5h97.229c23.271,0,33.333,12,40.333,23.063,12.375,19.583,32,50.667,43.937,70.375a41.8,41.8,0,0,1,6,21.563v93.333c0,23.354-15.167,41.667-41.667,41.667H437.5a62.5,62.5,0,0,1-125,0h-125a62.5,62.5,0,0,1-125,0Zm62.5-25a25,25,0,1,1-25,25A25.02,25.02,0,0,1,125,290.5Zm250,0a25,25,0,1,1-25,25A25.02,25.02,0,0,1,375,290.5ZM0,232.167Zm354.167-125v62.5H452.4l-29.729-52a20.8,20.8,0,0,0-18.083-10.5H354.167Z" transform="translate(-984 3674)" fill="#ffb703" fill-rule="evenodd" opacity="0.87"/>
    <path id="iconmonstr-delivery-1-2" data-name="iconmonstr-delivery-1" d="M295.385,235.088H0V24.1A21.107,21.107,0,0,1,21.1,3H274.286a21.107,21.107,0,0,1,21.1,21.1Z" transform="translate(-984 3678.661)" fill="#ffb703" fill-rule="evenodd"/>
  </g>
</svg>
