<svg xmlns="http://www.w3.org/2000/svg" width="500" height="500" viewBox="0 0 500 500">
  <path id="quality-food" d="M455.944,499.981h-.032c-23.087,0-48.434-11.845-48.434-31.225V291.813s-37.843-.062-79.658,0C353.715,146.178,428.013.377,478.288.377c14.433,0,25.961,7.432,26.058,17.715.323,29.04.1,345.81.032,450.664,0,17.236-21.7,31.225-48.434,31.225ZM84.452,240.832c0-14.384-13.981-19.089-44.463-34.827-22.506-11.657-38-29.831-35.131-48.337C13,104.856,32.692-.019,32.692-.019H52.066v124.9H84.452l7.2-124.9h19.6l5.586,124.9h32.386l7.814-124.9h18.147l6.426,124.9H214V-.019h17.727s21.763,104.188,30.707,157.167c3.164,18.777-13.206,37.3-36.229,49.045-30.643,15.633-44.592,20.13-44.592,34.743V468.36c0,17.236-21.731,31.225-48.6,31.225-26.833,0-48.564-13.989-48.564-31.225V240.832Z" transform="translate(-4.515 0.019)" fill="#ffb703" fill-rule="evenodd"/>
</svg>
