<svg id="yummy-smiley" xmlns="http://www.w3.org/2000/svg" width="500" height="500" viewBox="0 0 500 500">
  <circle id="Ellipse_4" data-name="Ellipse 4" cx="250" cy="250" r="250" fill="#ffb703"/>
  <path id="Path_2" data-name="Path 2" d="M166,125.7c21.981,0,39.8,22.386,39.8,50s-17.819-30.2-39.8-30.2-39.8,57.814-39.8,30.2S144.019,125.7,166,125.7Z" stroke="#e7e515" stroke-miterlimit="10" stroke-width="1"/>
  <path id="Path_3" data-name="Path 3" d="M313.5,125.7c21.98,0,39.8,22.386,39.8,50s-17.819-31.2-39.8-31.2-39.8,58.814-39.8,31.2S291.52,125.7,313.5,125.7Z" stroke="#e7e515" stroke-miterlimit="10" stroke-width="1"/>
  <path id="Path_4" data-name="Path 4" d="M285.3,417.271c-3.838,6.151,7.62,12.308,11.556,17.4,3.892,5.036,10.8,9.311,16.641,12.82,13.814,8.294,32.287,15.312,48.315,7.8,7.5-3.513,11.948-7.819,14.743-14.571,3.926-9.491,4.366-20.649.153-30.176-4.278-9.675-12.712-14.434-21.528-20.16-3.9-2.531-6.784-5.67-12.1-5.141-.354.035-4.143,2.281-4.583,2.251-2.509,9.429-16.251,18.548-25,21.6-5.286,1.842-5.785,3.9-11.349,5.352-3.306.864-1.783,1.47-6.992,2.874" fill="#ff0013" stroke="#ff000d" stroke-miterlimit="10" stroke-width="1"/>
  <path id="Path_5" data-name="Path 5" d="M347.3,380.3c0,14.6-59.4,47.9-102.1,47.9-35.3,0-102.1-33.3-102.1-52.3,0-20.5,39.1,40.5,103.8,40.5C308.8,416.3,347.3,368.8,347.3,380.3Z" stroke="#000" stroke-miterlimit="10" stroke-width="1"/>
</svg>
